# xmcd
#
# Track frame offsets: 
#        182
#        12242
#        29585
#        45525
#        59787
#        80702
#        92982
#        104917
#        118952
#        134717
#        150482
#        166882
#        180140
#        192375
#
# Disc length: 2724 seconds
#
# Revision: 3
# Processed by: cddbd v1.4PL0 Copyright (c) Steve Scherf et al.
# Submitted via: ExactAudioCopy v0.90b4
#
DISCID=c90aa20e
DTITLE=Klic - Vetrne mlyny
DYEAR=1900
DGENRE=
TTITLE0=Sejdiri
TTITLE1=Beda porazenym
TTITLE2=Lidska komedie
TTITLE3=Jen jednu noc
TTITLE4=Tam v bile plani
TTITLE5=Posledny Sanson
TTITLE6=Hade
TTITLE7=Ctihodni
TTITLE8=Balada o vecne lasce
TTITLE9=Narek
TTITLE10=Krizovy Kral
TTITLE11=Promoklas
TTITLE12=Dal plyne cas
TTITLE13=Quijote
EXTD=
EXTT0=
EXTT1=
EXTT2=
EXTT3=
EXTT4=
EXTT5=
EXTT6=
EXTT7=
EXTT8=
EXTT9=
EXTT10=
EXTT11=
EXTT12=
EXTT13=
PLAYORDER=
